<?xml version="1.0" encoding="UTF-8" ?>
<!DOCTYPE svg PUBLIC "-//W3C//DTD SVG 1.1//EN" "http://www.w3.org/Graphics/SVG/1.1/DTD/svg11.dtd">
<svg width="992pt" height="196pt" viewBox="0 0 992 196" version="1.1" xmlns="http://www.w3.org/2000/svg">
<g id="#0091c4ff">
<path fill="#0091c4" opacity="1.00" d=" M 53.66 11.66 C 55.93 7.99 58.14 4.28 60.65 0.78 C 80.82 33.17 100.91 65.60 121.00 98.04 C 100.96 130.54 80.80 162.97 60.66 195.41 C 57.97 191.68 55.63 187.72 53.22 183.80 C 38.29 159.72 23.38 135.64 8.44 111.57 C 5.70 107.18 3.09 102.68 0.00 98.52 L 0.00 97.62 C 3.26 93.22 5.99 88.48 8.89 83.85 C 23.82 59.79 38.74 35.73 53.66 11.66 M 40.89 58.27 C 40.57 71.61 40.80 84.95 40.77 98.29 C 34.21 98.65 27.64 98.43 21.07 98.41 C 33.60 111.40 46.65 123.87 59.32 136.71 C 60.36 138.47 61.77 136.56 62.68 135.74 C 74.98 123.18 87.72 111.06 99.92 98.41 C 93.36 98.43 86.78 98.64 80.22 98.30 C 80.18 84.96 80.43 71.61 80.10 58.28 C 67.03 58.32 53.96 58.32 40.89 58.27 Z" />
<path fill="#0091c4" opacity="1.00" d=" M 352.29 49.10 C 352.09 46.13 355.76 45.74 357.95 45.53 C 362.09 45.59 367.07 44.55 370.46 47.56 C 371.13 59.73 370.40 71.97 370.81 84.17 C 374.88 80.80 379.23 77.49 384.46 76.17 C 392.65 74.17 402.12 75.59 408.34 81.64 C 415.50 88.73 417.66 99.24 417.95 108.97 C 418.17 119.61 416.53 131.10 409.57 139.58 C 402.69 148.12 390.10 150.64 380.08 146.72 C 375.32 144.81 371.74 141.04 368.12 137.57 C 368.02 140.50 368.02 143.45 367.51 146.35 C 362.96 147.39 357.98 148.14 353.52 146.39 C 351.87 145.69 352.40 143.47 352.21 142.06 C 352.29 111.07 352.13 80.08 352.29 49.10 M 382.33 91.48 C 377.54 93.13 373.72 97.02 370.95 101.15 C 370.52 108.35 370.57 115.65 370.92 122.85 C 373.11 126.00 375.93 128.74 379.08 130.92 C 382.03 133.10 386.02 133.06 389.45 132.30 C 396.39 129.28 398.52 121.00 398.79 114.10 C 398.93 107.07 398.63 98.95 393.28 93.70 C 390.48 90.71 386.05 90.87 382.33 91.48 Z" />
<path fill="#0091c4" opacity="1.00" d=" M 141.44 52.61 C 146.51 52.05 151.68 52.22 156.77 52.53 C 158.51 52.49 158.85 54.51 159.31 55.77 C 165.10 79.83 170.16 104.07 176.19 128.07 C 181.78 104.70 187.47 81.35 193.07 57.98 C 193.57 55.72 194.46 52.76 197.21 52.53 C 201.78 52.14 206.39 52.24 210.97 52.43 C 213.29 52.27 214.96 54.33 215.39 56.43 C 221.62 80.29 227.07 104.37 233.53 128.16 C 238.99 104.36 244.51 80.57 249.98 56.77 C 250.31 54.70 251.62 52.25 254.05 52.45 C 258.45 52.31 262.95 51.94 267.30 52.73 C 269.52 54.55 268.32 57.60 267.89 59.95 C 260.68 87.03 253.59 114.15 246.33 141.22 C 245.72 144.78 242.60 147.16 239.06 147.19 C 233.51 147.31 227.80 147.90 222.35 146.56 C 219.94 146.20 219.17 143.57 218.57 141.57 C 213.51 121.96 208.79 102.25 203.57 82.67 C 203.12 83.83 202.71 85.00 202.39 86.19 C 197.91 104.81 193.55 123.47 188.97 142.06 C 188.34 145.81 184.46 147.36 181.05 147.30 C 175.83 147.22 170.47 147.91 165.36 146.56 C 162.62 146.08 161.91 142.99 161.21 140.73 C 154.14 113.54 147.00 86.35 139.92 59.16 C 139.38 56.97 138.58 53.49 141.44 52.61 Z" />
<path fill="#0091c4" opacity="1.00" d=" M 285.47 81.50 C 293.46 75.49 304.08 74.45 313.70 75.96 C 320.35 77.20 326.83 80.56 330.79 86.18 C 335.90 93.31 336.96 102.47 336.51 111.01 C 336.56 114.02 334.04 116.74 330.97 116.52 C 317.73 116.69 304.49 116.51 291.25 116.60 C 291.26 122.10 292.67 128.22 297.40 131.60 C 302.77 135.45 309.79 134.79 316.02 134.30 C 321.77 133.79 326.90 130.71 332.63 130.24 C 333.71 134.21 334.20 138.68 332.63 142.58 C 330.18 145.23 326.28 145.75 322.96 146.75 C 312.26 148.92 300.72 149.67 290.36 145.60 C 283.53 142.96 278.03 137.28 275.48 130.43 C 272.53 122.68 272.15 114.16 272.93 105.98 C 273.96 96.70 277.82 87.25 285.47 81.50 M 300.71 88.87 C 294.23 91.11 291.67 98.33 291.15 104.59 C 300.38 104.65 309.61 104.63 318.84 104.60 C 318.72 99.96 318.04 94.84 314.56 91.44 C 310.98 87.85 305.33 87.79 300.71 88.87 Z" />
</g>
<g id="#000000ff">
<path fill="#000000" opacity="1.00" d=" M 730.23 46.03 C 733.00 45.50 735.85 45.53 738.57 46.39 C 738.76 79.81 738.72 113.24 738.59 146.66 C 736.10 147.32 733.53 147.40 731.00 147.01 C 730.61 143.37 730.63 139.71 730.70 136.05 C 725.63 140.63 720.36 145.55 713.58 147.35 C 706.67 148.31 698.97 148.21 693.11 143.89 C 685.41 138.54 682.16 129.01 681.28 120.05 C 680.30 108.99 681.20 97.03 687.53 87.55 C 694.53 76.95 710.11 73.63 720.99 79.99 C 724.28 81.89 727.03 84.54 729.88 87.02 C 730.21 73.36 729.56 59.68 730.23 46.03 M 704.43 84.70 C 700.44 85.71 697.12 88.56 694.91 91.95 C 690.78 98.48 689.81 106.50 690.01 114.08 C 690.38 121.76 691.48 130.20 696.99 136.04 C 701.73 141.24 709.87 141.72 715.99 138.88 C 720.91 136.50 724.87 132.56 728.45 128.50 C 730.51 126.56 729.84 123.54 729.99 121.01 C 729.77 113.39 730.25 105.75 729.78 98.15 C 727.48 94.02 723.53 91.00 719.90 88.08 C 715.56 84.64 709.79 83.57 704.43 84.70 Z" />
<path fill="#000000" opacity="1.00" d=" M 514.07 52.37 C 516.85 52.32 519.64 52.37 522.42 52.57 C 522.81 68.37 522.47 84.19 522.58 100.00 C 522.71 108.15 521.91 116.57 524.53 124.44 C 526.39 130.24 530.59 135.38 536.24 137.82 C 541.14 140.20 546.72 139.85 552.01 139.67 C 559.27 139.36 566.14 134.88 569.37 128.37 C 572.36 122.75 572.82 116.25 572.81 110.00 C 572.79 92.66 572.84 75.31 572.78 57.97 C 572.82 56.15 572.73 54.23 573.58 52.55 C 576.19 52.13 578.84 52.36 581.47 52.54 C 581.98 71.36 581.53 90.20 581.70 109.02 C 581.85 118.07 580.68 127.68 575.16 135.16 C 568.93 144.08 557.64 148.39 547.00 147.78 C 536.88 148.36 526.20 144.17 520.24 135.77 C 515.24 128.93 513.69 120.27 513.62 111.97 C 513.52 96.98 513.61 81.99 513.59 67.00 C 513.62 62.12 513.28 57.21 514.07 52.37 Z" />
<path fill="#000000" opacity="1.00" d=" M 836.21 60.24 C 838.89 59.84 841.75 59.38 844.28 60.70 C 845.25 66.31 844.25 72.07 844.86 77.74 C 851.46 77.87 858.13 77.14 864.67 78.31 C 864.74 80.57 866.18 84.64 862.88 85.16 C 856.89 85.63 850.87 85.23 844.87 85.29 C 844.41 98.84 844.75 112.41 844.69 125.97 C 844.92 130.66 845.17 136.61 849.61 139.38 C 854.59 142.25 859.94 138.88 865.06 138.43 C 864.98 140.50 865.15 142.63 864.60 144.65 C 861.20 148.45 855.55 147.71 850.97 147.69 C 845.18 147.65 839.59 143.89 837.73 138.35 C 835.49 131.82 836.03 124.79 835.94 118.00 C 835.89 107.10 836.05 96.19 835.86 85.29 C 832.32 85.29 828.75 85.63 825.25 85.05 C 823.32 83.57 823.66 80.54 824.66 78.61 C 828.05 76.84 832.17 77.98 835.87 77.73 C 836.05 71.90 835.74 66.06 836.21 60.24 Z" />
<path fill="#000000" opacity="1.00" d=" M 631.69 77.81 C 641.25 74.95 652.73 78.05 658.55 86.44 C 664.91 95.49 665.51 107.18 664.76 117.85 C 663.82 128.04 659.84 139.10 650.55 144.49 C 644.58 148.27 637.18 148.21 630.43 147.34 C 624.79 145.74 620.36 141.64 616.05 137.87 C 615.73 149.61 616.25 161.36 615.77 173.09 C 612.96 173.50 610.10 173.60 607.35 172.81 C 607.11 141.27 607.11 109.70 607.35 78.15 C 609.81 77.45 612.36 77.50 614.87 77.89 C 615.23 81.56 615.25 85.25 615.25 88.94 C 620.01 84.33 625.07 79.50 631.69 77.81 M 632.56 84.85 C 625.84 87.29 620.35 92.51 616.23 98.22 C 615.55 105.45 616.18 112.74 615.93 120.00 C 616.10 123.11 615.16 126.87 617.83 129.19 C 622.91 134.61 628.98 140.79 637.00 140.60 C 643.17 140.86 648.69 136.85 651.57 131.60 C 655.95 123.68 656.46 114.23 655.51 105.40 C 654.69 98.64 652.72 91.28 646.99 87.01 C 642.93 83.81 637.38 84.00 632.56 84.85 Z" />
<path fill="#000000" opacity="1.00" d=" M 763.88 82.85 C 770.11 78.78 777.66 77.19 785.00 76.73 C 791.91 76.77 799.65 78.04 804.51 83.47 C 809.22 88.75 809.71 96.25 809.68 102.99 C 809.57 117.52 809.85 132.05 809.53 146.58 C 807.26 147.04 804.67 148.06 802.56 146.57 C 801.43 144.09 802.10 141.15 801.80 138.49 C 797.02 142.32 792.05 146.55 785.78 147.51 C 779.52 148.04 772.69 148.34 767.19 144.77 C 757.27 139.02 755.89 123.74 763.65 115.66 C 768.30 110.76 775.10 108.71 781.59 107.70 C 787.98 107.01 794.43 107.43 800.85 107.17 C 800.97 100.76 801.67 93.19 796.76 88.22 C 792.22 83.59 785.15 84.06 779.23 84.61 C 773.00 85.31 768.17 89.85 762.14 91.09 C 761.64 88.28 761.04 84.65 763.88 82.85 M 782.41 114.68 C 777.35 115.43 771.80 117.48 769.29 122.26 C 766.81 127.28 767.53 134.29 772.18 137.82 C 776.71 141.38 783.18 141.23 788.37 139.32 C 793.18 137.26 797.51 133.88 800.67 129.71 C 801.32 124.63 800.85 119.47 800.83 114.36 C 794.69 114.57 788.53 114.13 782.41 114.68 Z" />
<path fill="#000000" opacity="1.00" d=" M 891.68 80.74 C 902.36 74.81 917.09 75.23 926.39 83.61 C 933.30 90.02 935.54 99.94 935.22 109.05 C 935.35 111.43 933.45 113.77 930.97 113.56 C 915.98 113.73 900.98 113.43 885.99 113.69 C 886.07 122.04 887.74 131.77 895.16 136.81 C 903.05 141.60 913.11 141.35 921.69 138.70 C 925.34 137.75 928.72 135.13 932.65 135.85 C 932.34 138.20 933.53 141.55 930.95 142.96 C 922.20 147.79 911.84 148.22 902.08 147.56 C 893.95 146.71 886.16 142.12 881.99 135.00 C 876.68 126.05 875.99 115.16 877.19 105.04 C 878.41 95.47 883.06 85.69 891.68 80.74 M 892.79 89.79 C 888.29 94.06 886.52 100.28 886.00 106.29 C 899.42 106.56 912.85 106.47 926.26 106.33 C 926.33 99.19 924.35 91.18 917.93 87.13 C 910.24 82.57 899.21 83.29 892.79 89.79 Z" />
<path fill="#000000" opacity="1.00" d=" M 963.58 89.19 C 967.78 84.54 971.64 78.60 978.18 77.18 C 982.84 75.90 987.61 77.34 992.00 78.94 L 992.00 85.67 C 987.50 87.32 982.88 83.68 978.37 85.36 C 974.19 86.75 971.32 90.35 968.66 93.66 C 966.45 96.72 963.71 99.91 963.88 103.92 C 963.71 118.24 964.16 132.56 963.69 146.87 C 960.92 147.24 958.12 147.23 955.36 146.84 C 955.05 123.91 955.08 100.96 955.34 78.02 C 957.77 77.85 960.47 76.92 962.75 78.21 C 964.16 81.64 963.32 85.56 963.58 89.19 Z" />
</g>
<g id="#7f7f7fff">
<path fill="#7f7f7f" opacity="1.00" d=" M 433.66 59.67 C 438.55 54.82 445.62 52.86 452.23 51.58 C 461.37 50.96 471.43 50.24 479.48 55.47 C 492.49 63.36 492.50 84.79 480.41 93.51 C 478.10 95.12 475.43 96.05 472.91 97.23 C 479.16 98.61 485.52 101.22 489.41 106.56 C 494.75 113.55 494.50 123.39 491.05 131.15 C 487.82 138.30 481.20 143.45 473.85 145.87 C 462.04 149.71 448.89 149.43 437.27 145.01 C 434.88 143.90 431.73 142.94 431.01 140.06 C 429.95 135.81 429.94 131.21 431.35 127.05 C 436.20 127.94 440.32 130.93 445.14 131.98 C 452.20 133.69 460.59 134.33 466.75 129.77 C 473.48 124.94 472.64 113.46 465.62 109.30 C 458.16 104.54 448.97 106.12 440.64 105.34 C 438.96 102.89 439.13 99.80 439.21 96.97 C 439.32 95.15 439.43 92.98 441.11 91.84 C 448.46 91.07 456.85 93.11 463.18 88.21 C 469.29 84.11 470.10 74.30 464.71 69.29 C 461.44 65.93 456.36 66.11 452.05 66.41 C 445.40 67.13 439.91 71.36 433.81 73.71 C 431.95 69.39 431.63 63.96 433.66 59.67 Z" />
</g>
<g id="#ffffffff">
<path fill="#ffffff" opacity="1.00" d=" M 40.89 58.27 C 53.96 58.32 67.03 58.32 80.10 58.28 C 80.43 71.61 80.18 84.96 80.22 98.30 C 86.78 98.64 93.36 98.43 99.92 98.41 C 87.72 111.06 74.98 123.18 62.68 135.74 C 61.77 136.56 60.36 138.47 59.32 136.71 C 46.65 123.87 33.60 111.40 21.07 98.41 C 27.64 98.43 34.21 98.65 40.77 98.29 C 40.80 84.95 40.57 71.61 40.89 58.27 Z" />
</g>
</svg>
